# xmcd
#
# Track frame offsets: 
#        150
#        17320
#        30825
#
# Disc length: 559 seconds
#
# Revision: 1
# Processed by: cddbd v1.5.2PL0 Copyright (c) Steve Scherf et al.
# Submitted via: ExactAudioCopy v0.99pb4
#
DISCID=0d022d03
DTITLE=The Cramps - Ultra Twist EP
DYEAR=1994
DGENRE=
TTITLE0=Ultra Twist
TTITLE1=Confessions Of A Psycho Cat
TTITLE2=No Club Lone Wolf
EXTD=
EXTT0=
EXTT1=
EXTT2=
PLAYORDER=
